<svg width="447" height="733" viewBox="0 0 447 733" fill="none" xmlns="http://www.w3.org/2000/svg">
<rect x="38" y="8" width="372" height="717" rx="46" stroke="#303030" stroke-width="16"/>
<rect width="45" height="87" rx="15" transform="matrix(-1 0 0 1 45 323)" fill="#303030"/>
<path d="M30 367C30.5523 367 31 366.552 31 366C31 365.448 30.5523 365 30 365V367ZM12.2929 365.293C11.9024 365.683 11.9024 366.317 12.2929 366.707L18.6569 373.071C19.0474 373.462 19.6805 373.462 20.0711 373.071C20.4616 372.681 20.4616 372.047 20.0711 371.657L14.4142 366L20.0711 360.343C20.4616 359.953 20.4616 359.319 20.0711 358.929C19.6805 358.538 19.0474 358.538 18.6569 358.929L12.2929 365.293ZM30 365H13V367H30V365Z" fill="#FFFDFD"/>
<rect x="402" y="323" width="45" height="87" rx="15" fill="#303030"/>
<path d="M417 367C416.448 367 416 366.552 416 366C416 365.448 416.448 365 417 365V367ZM434.707 365.293C435.098 365.683 435.098 366.317 434.707 366.707L428.343 373.071C427.953 373.462 427.319 373.462 426.929 373.071C426.538 372.681 426.538 372.047 426.929 371.657L432.586 366L426.929 360.343C426.538 359.953 426.538 359.319 426.929 358.929C427.319 358.538 427.953 358.538 428.343 358.929L434.707 365.293ZM417 365H434V367H417V365Z" fill="#FFFDFD"/>
</svg>
